<svg xmlns="http://www.w3.org/2000/svg" width="81.967" height="81.962" viewBox="0 0 81.967 81.962">
  <path id="discount" d="M264.915,7710.961a14.939,14.939,0,0,1-5.623-1.1,15.166,15.166,0,0,1-4.815-3.108,17.328,17.328,0,0,1-2.235-2.607,4.2,4.2,0,0,1-.227-.386l0,0a1.973,1.973,0,0,0-.676-.856.5.5,0,0,0-.218-.042,2.18,2.18,0,0,0-.56.109c-.065.019-.141.04-.2.055a21.869,21.869,0,0,1-2.187.342,9.977,9.977,0,0,1-1.22.071,17.564,17.564,0,0,1-4.338-.626,14.481,14.481,0,0,1-7.482-4.833,15.35,15.35,0,0,1-3.446-8.224,20.316,20.316,0,0,1,.492-6.229,12.018,12.018,0,0,1-3.789-2.862,15.031,15.031,0,0,1-4.03-7.492,15.351,15.351,0,0,1,5.8-15.487l.085-.067a6.654,6.654,0,0,1,1.936-1.2,20.269,20.269,0,0,1-.586-5.051,16.038,16.038,0,0,1,2.431-7.876,15.014,15.014,0,0,1,6.151-5.484,16.336,16.336,0,0,1,4.8-1.343,12.253,12.253,0,0,1,1.755-.121,23.084,23.084,0,0,1,4.726.6,4.115,4.115,0,0,1,.585-1.051c.049-.07.1-.141.145-.211a17.949,17.949,0,0,1,2.218-2.61,14.345,14.345,0,0,1,4.91-3.2,15.4,15.4,0,0,1,5.673-1.067,15.154,15.154,0,0,1,9.87,3.575,16.412,16.412,0,0,1,2.86,3.137c.05.073.1.146.154.218a4.574,4.574,0,0,1,.69,1.212l.59-.124.018,0a23.6,23.6,0,0,1,2.591-.447c.373-.035.766-.053,1.169-.053a18.057,18.057,0,0,1,3.631.4,15.248,15.248,0,0,1,6.952,3.566,13.668,13.668,0,0,1,4.167,6.6,16.378,16.378,0,0,1,.733,5.976,19.47,19.47,0,0,1-.341,2.274c-.015.069-.039.149-.064.234a1.157,1.157,0,0,0-.069.749.924.924,0,0,0,.387.337l.1.062.223.14.011.007c.3.187.638.4.944.631a17.679,17.679,0,0,1,3.238,3.143,14.875,14.875,0,0,1,3.108,8.425,15.676,15.676,0,0,1-2.081,8.746,15.215,15.215,0,0,1-3.76,4.24c-.542.417-1.065.783-1.6,1.12-.03.02-.062.039-.1.059l-.025.015c-.2.117-.422.25-.477.468a2.188,2.188,0,0,0,.154,1.015,4.14,4.14,0,0,1,.129.491,15.94,15.94,0,0,1,.228,3.282,16.187,16.187,0,0,1-1.9,7.044,14.951,14.951,0,0,1-4.918,5.385,15.517,15.517,0,0,1-8.5,2.472,15.24,15.24,0,0,1-3.031-.289c-.1-.019-.214-.054-.34-.091h-.006a3.057,3.057,0,0,0-.789-.161.616.616,0,0,0-.269.052,2.147,2.147,0,0,0-.709.9,4.46,4.46,0,0,1-.257.429,19.066,19.066,0,0,1-2.26,2.606,14.645,14.645,0,0,1-4.864,3.075A15.6,15.6,0,0,1,264.915,7710.961Zm10.384-35.906a4.867,4.867,0,0,0-.955.093,5.068,5.068,0,0,0-3.377,2.061,5.332,5.332,0,0,0-.6,4.651,4.86,4.86,0,0,0,2.964,3.155,5.817,5.817,0,0,0,1.916.3,6.8,6.8,0,0,0,1.366-.139,4.584,4.584,0,0,0,3.21-2.625,5.566,5.566,0,0,0-.009-4.84,5.145,5.145,0,0,0-4.516-2.66Zm-.113-19.164a3.848,3.848,0,0,0-.676.061,5.57,5.57,0,0,0-2.845,1.882l-.117.118-.067.067-3.536,3.534L257,7672.5l-3.45,3.45c-.16.161-.329.322-.477.465a10.545,10.545,0,0,0-1.481,1.641,3.88,3.88,0,0,0,.615,5.022,4.028,4.028,0,0,0,2.657.962c.118,0,.239-.005.37-.016a5.271,5.271,0,0,0,3.031-1.844l3.45-3.45,11.2-11.2,3.45-3.453c.148-.147.3-.3.453-.44l.016-.015,0,0a9.941,9.941,0,0,0,1.54-1.728,4.163,4.163,0,0,0,.664-1.6,3.824,3.824,0,0,0-.912-3.039A3.9,3.9,0,0,0,275.186,7655.891Zm-20.345-1.306a2.289,2.289,0,0,0-.279.017c-2.277.287-3.636,1.106-4.406,2.657a5.576,5.576,0,0,0,.962,6.214,4.99,4.99,0,0,0,2.6,1.256,5.419,5.419,0,0,0,1,.106,3.624,3.624,0,0,0,.426-.025,4.934,4.934,0,0,0,4.29-2.837,5.591,5.591,0,0,0-.228-4.862,4.593,4.593,0,0,0-3.389-2.412l-.179-.028A5.155,5.155,0,0,0,254.84,7654.585Z" transform="translate(-223.998 -7629)" fill="#00b67a"/>
</svg>
