<svg xmlns="http://www.w3.org/2000/svg" width="76.25" height="76.284" viewBox="0 0 76.25 76.284">
  <path id="error" d="M261.954,7705.284a38.03,38.03,0,0,1-28.45-12.762,38.363,38.363,0,0,1-8.877-18.475,39.137,39.137,0,0,1,1.757-20.427,37.228,37.228,0,0,1,7.335-12.013,38.049,38.049,0,0,1,8.754-7.163,38.791,38.791,0,0,1,10.449-4.309,37.756,37.756,0,0,1,5.26-.806c.711-.075,1.516-.159,2.291-.261a8.812,8.812,0,0,1,1.153-.069c.591,0,1.192.045,1.773.088l.508.037a44.447,44.447,0,0,1,6.521.851,38.2,38.2,0,0,1,26.281,21.127,39.209,39.209,0,0,1,3.458,13.73,38.173,38.173,0,0,1-5.19,21.739,38.983,38.983,0,0,1-11.777,12.383,36.95,36.95,0,0,1-15.976,6.006A43.926,43.926,0,0,1,261.954,7705.284Zm.138-28.565a5.322,5.322,0,0,0-.817.063,4.7,4.7,0,0,0-3.741,3.323,4.606,4.606,0,0,0,4.563,6.153,6.15,6.15,0,0,0,.893-.064,4.374,4.374,0,0,0,3.411-2.655,5.064,5.064,0,0,0-.39-4.862A4.684,4.684,0,0,0,262.092,7676.719Zm.042-28.6a3.619,3.619,0,0,0-3.586,3.208,18.5,18.5,0,0,0-.04,2.442c.01.364.02.741.02,1.1v11.557c0,.205,0,.417-.009.621a9.4,9.4,0,0,0,.1,2.012,3.615,3.615,0,0,0,1.188,2.042,3.374,3.374,0,0,0,2.187.81,3.641,3.641,0,0,0,3.593-3.2,16.256,16.256,0,0,0,.055-2.552c-.011-.366-.023-.744-.023-1.109V7653.5c0-.214.007-.437.013-.653a8,8,0,0,0-.088-1.862A3.517,3.517,0,0,0,262.134,7648.124Z" transform="translate(-224 -7629)" fill="#00b67a"/>
</svg>
