<svg xmlns="http://www.w3.org/2000/svg" width="57.172" height="65.297" viewBox="0 0 57.172 65.297">
  <path id="notification" d="M158.2,107.177a7.4,7.4,0,0,0-2.2.533,20.228,20.228,0,0,0-13.836,15.919,22.253,22.253,0,0,0-.282,2.4c-.05,1.153.045,2.311-.005,3.464a28.1,28.1,0,0,1-1.132,7.26,26.323,26.323,0,0,1-3.862,7.527c-.4.547-.827,1.093-1.276,1.6a8.771,8.771,0,0,0-1.62,2.131,4.171,4.171,0,0,0,3.5,5.65c1.417.137,2.906.011,4.329.011h43.1c1.8,0,3.5.092,4.833-1.343a3.675,3.675,0,0,0,.761-1.254,4.737,4.737,0,0,0,.331-1.732c-.087-2.005-1.952-3.514-3.095-5a24.052,24.052,0,0,1-5.023-13.122c-.161-2.354.046-4.717-.3-7.06a20.742,20.742,0,0,0-9.9-14.68,19.392,19.392,0,0,0-3.863-1.727,10.282,10.282,0,0,0-2.331-.577c0-1.695.273-3.542-.782-5a4.23,4.23,0,0,0-6.923.533c-.692,1.315-.421,3.023-.421,4.463m-4.13,50.622a13.27,13.27,0,0,0,.449,2.6,8.455,8.455,0,0,0,4.213,4.731,8.262,8.262,0,0,0,10.931-3.932,7.864,7.864,0,0,0,.725-3.4Z" transform="translate(-133.665 -100.624)" fill="#00b67a"/>
</svg>
