<svg xmlns="http://www.w3.org/2000/svg" width="81.949" height="82.008" viewBox="0 0 81.949 82.008">
  <path id="value" d="M292.646,7711.008c-.525,0-1.059-.01-1.575-.02h-.048c-.509-.01-1.034-.02-1.546-.02H238.5c-.338,0-.7.007-.985.013s-.652.013-.994.013c-.424,0-.777-.011-1.111-.033a12.334,12.334,0,0,1-6.992-2.6,12.8,12.8,0,0,1-2.344-2.514,11.793,11.793,0,0,1-2.038-6.017c-.053-.767-.037-1.557-.022-2.32.007-.359.014-.73.014-1.093v-51.871c0-.426-.006-.858-.012-1.277a22,22,0,0,1,.356-5.309,11.651,11.651,0,0,1,6.322-7.78,15.173,15.173,0,0,1,4.47-1.128,6.812,6.812,0,0,1,.916-.051c.194,0,.39,0,.563.008s.37.008.554.008H292.32a21.133,21.133,0,0,1,4.635.367,11.7,11.7,0,0,1,6.382,4.023,12.051,12.051,0,0,1,2.549,6.261,24.211,24.211,0,0,1,.039,2.933c-.012.453-.025.921-.025,1.376v50.974c0,.533.012,1.083.024,1.614a28.112,28.112,0,0,1-.119,4.241,11.39,11.39,0,0,1-3.271,6.6,12.137,12.137,0,0,1-6.554,3.379A20.4,20.4,0,0,1,292.646,7711.008Zm-38.425-31.663a3.681,3.681,0,0,0-3.148,1.542,3.378,3.378,0,0,0-.555,1.057,4.527,4.527,0,0,0-.143,1.381c.139,3.292,3.614,4.15,6.406,4.841.415.1.843.209,1.232.317l.26.073.089.025a19.363,19.363,0,0,0,2.579.6c0,.338-.011.68-.023,1.042a7.488,7.488,0,0,0,.718,4.4,3.782,3.782,0,0,0,3.226,1.645h.007a3.806,3.806,0,0,0,3.231-1.645,7.148,7.148,0,0,0,.741-4.2c-.006-.277-.013-.564-.013-.841a14.628,14.628,0,0,0,8.37-3.439,10.9,10.9,0,0,0,1.463-13.877,12.841,12.841,0,0,0-5.119-3.925,32.779,32.779,0,0,0-6.34-2.286,33.315,33.315,0,0,1-6.992-2.307c-.892-.447-1.933-1.194-1.825-2.216.178-1.676,1.974-2.59,3.451-3.062a11.933,11.933,0,0,1,3.683-.555,22.355,22.355,0,0,1,4.853.642c.651.147,1.294.35,1.916.546l.116.037c.088.028.174.061.257.092l.015.006a2.2,2.2,0,0,0,.7.179c.18.007.333.01.483.01a4.7,4.7,0,0,0,1.795-.291,3.824,3.824,0,0,0,2.357-3.3,4.6,4.6,0,0,0-.207-1.626c-.9-2.515-4.305-3.144-6.135-3.481-.2-.038-.4-.082-.6-.124l-.01,0c-.358-.077-.728-.157-1.1-.2-.063-.007-.131-.013-.2-.018h-.013a1.548,1.548,0,0,1-.734-.17c-.3-.2-.246-.909-.208-1.423.011-.142.02-.262.02-.352a5.154,5.154,0,0,0-1.014-3.412,3.845,3.845,0,0,0-2.949-1.326,3.764,3.764,0,0,0-3.329,1.893,7.993,7.993,0,0,0-.61,4.123c.008.3.016.616.016.919a12.7,12.7,0,0,0-6.667,2.86,11.7,11.7,0,0,0-3.756,6.326,9.781,9.781,0,0,0,1.924,7.8c2.611,3.189,6.627,4.321,10.511,5.417l.508.144a5,5,0,0,1,.722.289l.007,0a5.027,5.027,0,0,0,.734.293,7.541,7.541,0,0,0,.773.159l.014,0a7.146,7.146,0,0,1,.839.176,16.236,16.236,0,0,1,4.96,2.119,2.471,2.471,0,0,1,1.088,2.7c-.573,1.861-2.72,2.542-4.42,2.787a17.563,17.563,0,0,1-2.483.18,14.045,14.045,0,0,1-2.559-.222,33.674,33.674,0,0,1-4.313-1.213l-.008,0-.024-.008c-.864-.285-1.758-.58-2.647-.823A7.357,7.357,0,0,0,254.221,7679.345Z" transform="translate(-224.001 -7629)" fill="#00b67a"/>
</svg>
