<svg xmlns="http://www.w3.org/2000/svg" width="2000.411" height="454.048" viewBox="0 0 2000.411 454.048">
  <g id="Group_4999" data-name="Group 4999" transform="translate(19.224 -1627.395)" opacity="0.9">
    <g id="image" transform="translate(-19 1738)" opacity="0.266">
      <path id="Path_13969" data-name="Path 13969" d="M-13,99.126c615.1-320.252,1330.8,269.412,1999.416,0" transform="translate(13.584 171.118)" fill="none" stroke="#00b67a" stroke-width="1"/>
      <path id="Path_13970" data-name="Path 13970" d="M-13.428,120.043c623.818-312.574,1323.92,290,1999.9,29.259" transform="translate(13.428 89.969)" fill="none" stroke="#00b67a" stroke-width="1"/>
      <path id="Path_13971" data-name="Path 13971" d="M-13.085,131.423c635.442-299.443,1312.379,317.491,1998,70.948" transform="translate(13.553 17.591)" fill="none" stroke="#00b67a" stroke-width="1"/>
      <path id="Path_13972" data-name="Path 13972" d="M-11.444,137.274C640.758-141.682,1281.334,496.213,1980.6,271.7" transform="translate(14.15 -65.325)" fill="none" stroke="#00b67a" stroke-width="1"/>
    </g>
    <g id="image-2" data-name="image" transform="translate(-5.572 1626.867)" opacity="0.266">
      <path id="Path_13969-2" data-name="Path 13969" d="M-13,73.728c615.1,320.252,1330.8-269.413,1999.417,0" transform="translate(0.156 0)" fill="none" stroke="#00b67a" stroke-width="1"/>
      <path id="Path_13970-2" data-name="Path 13970" d="M-13.428,124.26C610.39,436.834,1310.493-165.74,1986.477,95" transform="translate(0 9.702)" fill="none" stroke="#00b67a" stroke-width="1"/>
      <path id="Path_13971-2" data-name="Path 13971" d="M-13.085,178.053c635.442,299.443,1312.38-317.491,1998-70.948" transform="translate(0.125 16.905)" fill="none" stroke="#00b67a" stroke-width="1"/>
      <path id="Path_13972-2" data-name="Path 13972" d="M-11.444,248.618C640.759,527.575,1281.334-110.321,1980.6,114.191" transform="translate(0.722 23.405)" fill="none" stroke="#00b67a" stroke-width="1"/>
    </g>
  </g>
</svg>
