<svg xmlns="http://www.w3.org/2000/svg" width="1151.964" height="1152.51" viewBox="0 0 1151.964 1152.51">
  <path id="Path_15198" data-name="Path 15198" d="M1004.994,7296.258a221.945,221.945,0,0,1-57.185-7.441A203.791,203.791,0,0,1,895,7266.549,225.984,225.984,0,0,1,837.616,7217a231.617,231.617,0,0,1-16.662-23c-.53-.836-1.054-1.784-1.609-2.787-1.732-3.128-3.694-6.673-6.53-8.143a7.438,7.438,0,0,0-3.5-.738c-2.942,0-6.437,1.1-9.521,2.072l-.016.005a45.358,45.358,0,0,1-4.783,1.333c-15.372,2.871-28.535,4.266-40.24,4.266-.912,0-1.841-.009-2.759-.027a254.274,254.274,0,0,1-61.817-8.639A214.109,214.109,0,0,1,633,7156.57a201.159,201.159,0,0,1-24.7-18.25,218.656,218.656,0,0,1-22.21-22.132A213.949,213.949,0,0,1,567.3,7091.1a189.653,189.653,0,0,1-14.431-27.1,212.7,212.7,0,0,1-12.19-38.728A281.23,281.23,0,0,1,535.09,6985a179.348,179.348,0,0,1,.167-25.6c.577-7.867,1.61-16.176,3.158-25.4.757-4.519,1.59-9.322,2.716-14,.1-.414.214-.836.336-1.284l.006-.021c.574-2.11,1.225-4.5.328-6.51-1.814-4.054-7.758-7.313-13-10.188l-.01-.005a64.651,64.651,0,0,1-5.788-3.415c-15.674-11.091-28.047-21.747-37.829-32.576-27.622-30.579-45.918-66.542-52.91-104-3.627-19.438-3.7-39.363-3.245-58a170.5,170.5,0,0,1,5.271-37.513,202.259,202.259,0,0,1,13.027-36.2A221.973,221.973,0,0,1,491,6568a245.218,245.218,0,0,1,34-27.976c1.35-.931,3.136-1.9,5.026-2.933,4.724-2.574,10.079-5.491,11.773-9.277,1.606-3.593-.226-9.579-1.842-14.859l0-.006a48.493,48.493,0,0,1-1.8-6.95c-2.23-16.946-4.3-35-3.069-53a232.969,232.969,0,0,1,9.347-51.418,219.406,219.406,0,0,1,20.445-47.07,205.327,205.327,0,0,1,128.506-96.576,249.93,249.93,0,0,1,30.188-5.779A264.923,264.923,0,0,1,754,6250.019c.536-.007,1.086-.01,1.635-.01a174.206,174.206,0,0,1,20.291,1.306c6.149.729,12.715,1.757,20.075,3.145a42.533,42.533,0,0,1,4.436,1.229c2.865.9,6.112,1.912,8.926,1.912a7.037,7.037,0,0,0,4.309-1.219c2.538-1.862,4.409-5.223,6.06-8.188.637-1.144,1.238-2.223,1.855-3.193a202.72,202.72,0,0,1,14.5-20c18.3-22.2,38.794-39.885,60.916-52.573a214.7,214.7,0,0,1,52.616-21.376,224.912,224.912,0,0,1,56.782-7.3,215.7,215.7,0,0,1,39.585,3.631A198.983,198.983,0,0,1,1084,6158.454a211.909,211.909,0,0,1,32.562,16.684A241.285,241.285,0,0,1,1146,6196.87c11.938,10.273,23.177,22.707,35.37,39.129q.5.679,1.017,1.367l.087.117c2.458,3.3,5,6.7,7.236,10.294A45.949,45.949,0,0,1,1195,6259a231.42,231.42,0,0,1,31.387-6.5,239.954,239.954,0,0,1,32.272-2.184,235.691,235.691,0,0,1,44.145,4.145,216.215,216.215,0,0,1,42.2,12.554c28.087,11.654,54.112,30.318,75.261,53.973,21.426,23.966,36.841,51.98,44.579,81.014a304.083,304.083,0,0,1,7.934,39.152c.892,6.926,1.443,13.674,1.638,20.059a158.559,158.559,0,0,1-.582,19.789c-.183,1.917-.355,3.882-.521,5.783l0,.039c-.731,8.353-1.486,16.989-3.436,25.18-.239,1-.609,2.2-1,3.469-1.262,4.082-2.832,9.163-1.538,12.347,1.609,3.954,7.18,6.871,12.1,9.445a54.463,54.463,0,0,1,5.574,3.176c7.362,5.161,14.213,10.441,20.363,15.693A197.628,197.628,0,0,1,1523.83,6574a227.305,227.305,0,0,1,26.794,36.485,220.056,220.056,0,0,1,18.7,40.619,212.3,212.3,0,0,1,10.506,88.9,221.517,221.517,0,0,1-6.275,35.29,217.123,217.123,0,0,1-11.86,33.58,212.458,212.458,0,0,1-17.26,31.146A208.918,208.918,0,0,1,1521.96,6868a248.245,248.245,0,0,1-36.96,31.561,56.812,56.812,0,0,1-5.523,3.173l-.009,0c-4.93,2.613-10.516,5.574-12.149,9.445-1.292,3.051.056,7.4,1.245,11.236l0,.011c.4,1.294.78,2.516,1.013,3.569,2.139,9.72,3.1,19.837,4.024,29.621l.052.553q.087.913.174,1.825a165.345,165.345,0,0,1,.591,21.108c-.228,6.782-.845,13.947-1.835,21.3a316.791,316.791,0,0,1-8.736,41.6,148.973,148.973,0,0,1-9.16,24.3,213.41,213.41,0,0,1-12.639,22.7,218.715,218.715,0,0,1-19.106,25.7,222.055,222.055,0,0,1-22.755,22.766,215.882,215.882,0,0,1-25.837,19.178A202.582,202.582,0,0,1,1346,7172.57a209.872,209.872,0,0,1-42.434,12.914,234.465,234.465,0,0,1-44.588,4.238,241.442,241.442,0,0,1-32.484-2.2A232.408,232.408,0,0,1,1195,7181c-2.345,7.973-8.037,15.555-13.058,22.244l-.039.052q-.646.861-1.276,1.7c-12.437,16.658-24.075,29.289-36.626,39.751-7.35,6.125-14.112,11.314-20.67,15.863A184.692,184.692,0,0,1,1101,7274.03C1072.123,7288.572,1038.924,7296.258,1004.994,7296.258ZM858,6812h0c-3.723,11.442-7.7,23.007-11.548,34.192l-.008.023c-2.9,8.431-5.9,17.149-8.777,25.783-.957,2.871-2.029,5.78-3.065,8.593A146.939,146.939,0,0,0,829,6898c9.336,3.158,18.774,6.448,27.9,9.629l.09.031.031.011c21.471,7.483,43.673,15.222,65.978,21.753,3.606,1.056,7.347,2.307,10.965,3.517l.011,0,.009,0c9.169,3.066,18.651,6.237,28.016,7.053v66h90v-44c0-1.209-.11-2.7-.226-4.272-.34-4.608-.762-10.343,1.253-13.413,2.057-3.131,8.163-4.3,13.07-5.247,1.863-.357,3.617-.694,4.9-1.092a225.541,225.541,0,0,0,42-18.285,100.858,100.858,0,0,0,25.949-20.942,122.037,122.037,0,0,0,18.778-28.154,134.526,134.526,0,0,0,10.891-32.278,125.449,125.449,0,0,0,2.291-33.316A117.94,117.94,0,0,0,1133,6726.093c-6.057-5.57-13.339-9.838-20.382-13.965-1.427-.836-3.045-1.784-4.617-2.727a310.725,310.725,0,0,0-34.9-18.1,239.641,239.641,0,0,0-37.1-12.928c-12.983-3.288-23.738-6.265-33.846-9.368-11.975-3.676-22.821-7.473-33.155-11.607a140.132,140.132,0,0,1-18.963-8.812A52.058,52.058,0,0,1,934.317,6635a13.153,13.153,0,0,1-2.261-5.281,21.969,21.969,0,0,1-.314-6.212A27.55,27.55,0,0,1,935.284,6612a44.2,44.2,0,0,1,16.864-15.606,78.765,78.765,0,0,1,21.852-7.73,141.807,141.807,0,0,1,15.155-2.3c5.123-.5,10.39-.757,15.654-.757a157.589,157.589,0,0,1,24.191,1.829c5.7.888,11.374,2.319,16.86,3.7,4.287,1.082,8.721,2.2,13.139,3.052,2.4.463,4.883.938,7.218,1.384,10.216,1.954,20.779,3.974,31.091,6.272,11.553,2.575,21.592,5.24,30.69,8.149a167.7,167.7,0,0,0,5.735-20.271c.685-2.875,1.393-5.848,2.15-8.729,1.393-5.3,2.794-10.692,4.148-15.909l.027-.1c3.5-13.464,7.11-27.384,10.941-40.987a235.757,235.757,0,0,1-23.656-7.265c-6.621-2.291-13.468-4.66-20.343-6.449a124.459,124.459,0,0,0-15.105-2.624h-.009c-4.245-.558-8.634-1.134-12.887-2.086-2.675-.6-5.356-1.308-7.949-1.993l-.007,0-.007,0c-6.131-1.621-12.47-3.3-19.036-3.579v-66H962v66a147.673,147.673,0,0,0-23.328,4.961,160.42,160.42,0,0,0-23.2,8.88,143.5,143.5,0,0,0-21.392,12.46,110.453,110.453,0,0,0-17.913,15.7,124.753,124.753,0,0,0-15.583,21.41,131.681,131.681,0,0,0-16.623,49.768,123.554,123.554,0,0,0-.427,26.033,113.082,113.082,0,0,0,3.821,20.668A104.127,104.127,0,0,0,855.1,6679.4a98.732,98.732,0,0,0,27.9,33.1,192.482,192.482,0,0,0,27.3,17.285,279.923,279.923,0,0,0,29.665,13.369c20.311,7.874,41.437,13.939,61.867,19.8h0l1.165.334c9.242,2.653,17.36,5.209,24.819,7.814,8.726,3.047,16.636,6.184,24.181,9.588l.371.167a131.944,131.944,0,0,1,12.022,5.923,41.489,41.489,0,0,1,10.463,8.23,27.346,27.346,0,0,1,6.356,12.147,28.54,28.54,0,0,1-.142,12.815,40.469,40.469,0,0,1-9.16,17.3,45.882,45.882,0,0,1-7.385,6.789,40.964,40.964,0,0,1-8.525,4.84,76.4,76.4,0,0,1-19.184,4.938A146.087,146.087,0,0,1,1017,6855a200.259,200.259,0,0,1-36.425-3.46A362.368,362.368,0,0,1,945,6842.858a184.8,184.8,0,0,1-17.488-6.342l-.016-.006-.009,0c-3.1-1.243-6.3-2.528-9.486-3.7-18.408-6.745-37.478-13.193-55.92-19.429l-.27-.091L858,6812Z" transform="translate(-428.819 -6143.748)" fill="#00b67a"/>
</svg>
